# xmcd
#
# Track frame offsets:
#	150
#	19607
#	35796
#	55208
#	75354
#	95907
#	111978
#	134292
#	150718
#	166651
#	185342
#	204279
#
# Disc length: 2913 seconds
#
# Revision: 7
# Processed by: cddbd v1.5.2PL0 Copyright (c) Steve Scherf et al.
# Submitted via: audiograbber 1.83.01
#
DISCID=950b5f0c
DTITLE=Palmer, Robert - Rhythm and blues
DYEAR=1999
DGENRE=Pop
TTITLE0=True love
TTITLE1=No problem
TTITLE2=I choose you
TTITLE3=Stone cold
TTITLE4=Sex appeal
TTITLE5=Work to make it work 99
TTITLE6=All the will in the world
TTITLE7=You're not the only one
TTITLE8=Mr. Wise Guy
TTITLE9=Let's get in on 99
TTITLE10=Tennis
TTITLE11=Twenty million things
EXTD=Label: Eagle Records\nBarcode: 5 034504 106321
EXTT0=
EXTT1=
EXTT2=
EXTT3=
EXTT4=
EXTT5=
EXTT6=
EXTT7=
EXTT8=
EXTT9=
EXTT10=
EXTT11=
PLAYORDER=
